<svg width="52" height="14" viewBox="0 0 52 14" fill="none" xmlns="http://www.w3.org/2000/svg">
<circle cx="6.72559" cy="7" r="6.32812" fill="#7CD957"/>
<path d="M14.46 4.89692C14.46 1.64933 17.9756 -0.380424 20.7881 1.24337L24.3017 3.27196C27.1142 4.89576 27.1142 8.95526 24.3017 10.5791L20.7881 12.6076C17.9756 14.2314 14.46 12.2017 14.46 8.95411L14.46 4.89692Z" fill="#7CD957"/>
<path d="M27.8174 3.48857C27.8174 1.32351 30.1611 -0.0296578 32.0361 1.05287L37.4695 4.18983C39.3445 5.27236 39.3445 7.9787 37.4695 9.06123L32.0361 12.1982C30.1611 13.2807 27.8174 11.9276 27.8174 9.76249L27.8174 3.48857Z" fill="#7CD957"/>
<path d="M40.2822 2.08022C40.2822 0.997689 41.4541 0.321109 42.3916 0.862375L50.8991 5.77421C51.8366 6.31547 51.8366 7.66864 50.8991 8.2099L42.3916 13.1217C41.4541 13.663 40.2822 12.9864 40.2822 11.9039L40.2822 2.08022Z" fill="#7CD957"/>
</svg>
