<svg width="13" height="13" viewBox="0 0 13 13" fill="none" xmlns="http://www.w3.org/2000/svg">
<path d="M6.10156 12.8223C5.27344 12.8223 4.49414 12.6641 3.76367 12.3477C3.0332 12.0352 2.38867 11.5996 1.83008 11.041C1.27539 10.4824 0.839844 9.83789 0.523438 9.10742C0.207031 8.37695 0.0488281 7.59766 0.0488281 6.76953C0.0488281 5.94141 0.207031 5.16211 0.523438 4.43164C0.839844 3.70117 1.27539 3.05859 1.83008 2.50391C2.38867 1.94531 3.03125 1.50781 3.75781 1.19141C4.48828 0.875 5.26758 0.716797 6.0957 0.716797C6.92773 0.716797 7.70898 0.875 8.43945 1.19141C9.16992 1.50781 9.81445 1.94531 10.373 2.50391C10.9316 3.05859 11.3691 3.70117 11.6855 4.43164C12.002 5.16211 12.1602 5.94141 12.1602 6.76953C12.1602 7.59766 12.002 8.37695 11.6855 9.10742C11.3691 9.83789 10.9316 10.4824 10.373 11.041C9.81445 11.5996 9.16992 12.0352 8.43945 12.3477C7.70898 12.6641 6.92969 12.8223 6.10156 12.8223ZM6.10156 11.627C6.77734 11.627 7.4082 11.502 7.99414 11.252C8.58008 11.002 9.0957 10.6543 9.54102 10.209C9.98633 9.76367 10.334 9.24805 10.584 8.66211C10.834 8.07617 10.959 7.44531 10.959 6.76953C10.959 6.09766 10.834 5.46875 10.584 4.88281C10.334 4.29297 9.98633 3.77539 9.54102 3.33008C9.0957 2.88477 8.57812 2.53711 7.98828 2.28711C7.40234 2.03711 6.77148 1.91211 6.0957 1.91211C5.42383 1.91211 4.79297 2.03711 4.20312 2.28711C3.61719 2.53711 3.10352 2.88477 2.66211 3.33008C2.2207 3.77539 1.875 4.29297 1.625 4.88281C1.375 5.46875 1.25 6.09766 1.25 6.76953C1.25 7.44531 1.375 8.07617 1.625 8.66211C1.875 9.24805 2.2207 9.76367 2.66211 10.209C3.10742 10.6543 3.62305 11.002 4.20898 11.252C4.79883 11.502 5.42969 11.627 6.10156 11.627ZM5.07617 9.98633C4.94336 9.98633 4.83203 9.94531 4.74219 9.86328C4.65625 9.77734 4.61328 9.66992 4.61328 9.54102C4.61328 9.41211 4.65625 9.30664 4.74219 9.22461C4.83203 9.13867 4.94336 9.0957 5.07617 9.0957H5.77344V6.64648H5.18164C5.04883 6.64648 4.9375 6.60547 4.84766 6.52344C4.75781 6.4375 4.71289 6.33008 4.71289 6.20117C4.71289 6.07617 4.75781 5.9707 4.84766 5.88477C4.9375 5.79883 5.04883 5.75586 5.18164 5.75586H6.2832C6.44727 5.75586 6.57031 5.80859 6.65234 5.91406C6.73828 6.01562 6.78125 6.1543 6.78125 6.33008V9.0957H7.43164C7.56445 9.0957 7.67383 9.13867 7.75977 9.22461C7.84961 9.30664 7.89453 9.41211 7.89453 9.54102C7.89453 9.66992 7.84961 9.77734 7.75977 9.86328C7.67383 9.94531 7.56445 9.98633 7.43164 9.98633H5.07617ZM6.06641 4.84766C5.84766 4.84766 5.66016 4.77148 5.50391 4.61914C5.35156 4.46289 5.27539 4.27539 5.27539 4.05664C5.27539 3.83398 5.35156 3.64648 5.50391 3.49414C5.66016 3.33789 5.84766 3.25977 6.06641 3.25977C6.28516 3.25977 6.4707 3.33789 6.62305 3.49414C6.7793 3.64648 6.85742 3.83398 6.85742 4.05664C6.85742 4.27539 6.7793 4.46289 6.62305 4.61914C6.4707 4.77148 6.28516 4.84766 6.06641 4.84766Z" fill="#15803D"/>
</svg>
