<svg width="133" height="133" viewBox="0 0 133 133" fill="none" xmlns="http://www.w3.org/2000/svg">
<g filter="url(#filter0_d_194_4036)">
<rect x="11" y="9" width="111" height="111" rx="13.5" fill="#116631"/>
<path opacity="0.9" d="M65.9205 65.3643C65.9389 65.3643 65.9555 65.3601 65.9704 65.3516C65.9853 65.3431 65.9984 65.3303 66.0097 65.3133L66.5086 64.5267C66.515 64.5161 66.521 64.5048 66.5267 64.4927C66.5323 64.4807 66.5352 64.4687 66.5352 64.4567C66.5352 64.4319 66.526 64.4124 66.5076 64.3983C66.4892 64.3834 66.4686 64.376 66.446 64.376C66.4148 64.376 66.3894 64.3923 66.3696 64.4248L65.9163 65.153L65.7008 64.8749C65.6873 64.8572 65.6742 64.8452 65.6615 64.8388C65.6495 64.8325 65.6357 64.8293 65.6201 64.8293C65.596 64.8293 65.5758 64.8381 65.5596 64.8558C65.5433 64.8728 65.5352 64.8933 65.5352 64.9174C65.5352 64.9294 65.5373 64.9414 65.5415 64.9535C65.5465 64.9648 65.5528 64.9758 65.5606 64.9864L65.8271 65.3133C65.8412 65.3317 65.8558 65.3448 65.8706 65.3526C65.8855 65.3604 65.9021 65.3643 65.9205 65.3643Z" fill="#116631"/>
</g>
<defs>
<filter id="filter0_d_194_4036" x="0.200001" y="7.15256e-07" width="132.6" height="132.6" filterUnits="userSpaceOnUse" color-interpolation-filters="sRGB">
<feFlood flood-opacity="0" result="BackgroundImageFix"/>
<feColorMatrix in="SourceAlpha" type="matrix" values="0 0 0 0 0 0 0 0 0 0 0 0 0 0 0 0 0 0 127 0" result="hardAlpha"/>
<feOffset dy="1.8"/>
<feGaussianBlur stdDeviation="5.4"/>
<feComposite in2="hardAlpha" operator="out"/>
<feColorMatrix type="matrix" values="0 0 0 0 0 0 0 0 0 0 0 0 0 0 0 0 0 0 0.04 0"/>
<feBlend mode="normal" in2="BackgroundImageFix" result="effect1_dropShadow_194_4036"/>
<feBlend mode="normal" in="SourceGraphic" in2="effect1_dropShadow_194_4036" result="shape"/>
</filter>
</defs>
</svg>
