<svg width="133" height="133" viewBox="0 0 133 133" fill="none" xmlns="http://www.w3.org/2000/svg">
<g filter="url(#filter0_d_194_4036)">
<rect x="11" y="9" width="111" height="111" rx="13.5" fill="#116631"/>
<path opacity="0.9" d="M49.9027 81.3146C50.7898 82.2017 52.162 82.6452 54.0194 82.6452H58.5311C58.9469 82.6452 59.2935 82.7908 59.5707 83.0819L62.7726 86.2629C64.0893 87.5797 65.3715 88.2312 66.6189 88.2173C67.8664 88.2173 69.1416 87.5659 70.4446 86.2629L73.6464 83.0819C73.9375 82.7908 74.291 82.6452 74.7068 82.6452H79.1977C81.0551 82.6452 82.4273 82.2017 83.3144 81.3146C84.2015 80.4414 84.645 79.0691 84.645 77.1979V72.707C84.645 72.2912 84.7906 71.9377 85.0816 71.6466L88.2627 68.4448C89.5795 67.1418 90.231 65.8666 90.2171 64.6192C90.2171 63.3717 89.5657 62.0896 88.2627 60.7728L85.0816 57.5709C84.7906 57.2798 84.645 56.9333 84.645 56.5313V52.0196C84.645 50.1761 84.2015 48.8108 83.3144 47.9237C82.4412 47.0228 81.0689 46.5723 79.1977 46.5723H74.7068C74.291 46.5723 73.9375 46.4337 73.6464 46.1565L70.4446 42.9754C69.1416 41.6447 67.8664 40.9864 66.6189 41.0002C65.3715 41.0002 64.0893 41.6586 62.7726 42.9754L59.5707 46.1565C59.2935 46.4337 58.9469 46.5723 58.5311 46.5723H54.0194C52.162 46.5723 50.7898 47.0158 49.9027 47.9029C49.0156 48.7762 48.5721 50.1484 48.5721 52.0196V56.5313C48.5721 56.9333 48.4335 57.2798 48.1562 57.5709L44.9752 60.7728C43.6584 62.0896 43 63.3717 43 64.6192C43 65.8666 43.6584 67.1418 44.9752 68.4448L48.1562 71.6466C48.4335 71.9377 48.5721 72.2912 48.5721 72.707V77.1979C48.5721 79.0553 49.0156 80.4275 49.9027 81.3146Z" fill="white"/>
<path opacity="0.9" d="M65.9205 65.3643C65.9389 65.3643 65.9555 65.3601 65.9704 65.3516C65.9853 65.3431 65.9984 65.3303 66.0097 65.3133L66.5086 64.5267C66.515 64.5161 66.521 64.5048 66.5267 64.4927C66.5323 64.4807 66.5352 64.4687 66.5352 64.4567C66.5352 64.4319 66.526 64.4124 66.5076 64.3983C66.4892 64.3834 66.4686 64.376 66.446 64.376C66.4148 64.376 66.3894 64.3923 66.3696 64.4248L65.9163 65.153L65.7008 64.8749C65.6873 64.8572 65.6742 64.8452 65.6615 64.8388C65.6495 64.8325 65.6357 64.8293 65.6201 64.8293C65.596 64.8293 65.5758 64.8381 65.5596 64.8558C65.5433 64.8728 65.5352 64.8933 65.5352 64.9174C65.5352 64.9294 65.5373 64.9414 65.5415 64.9535C65.5465 64.9648 65.5528 64.9758 65.5606 64.9864L65.8271 65.3133C65.8412 65.3317 65.8558 65.3448 65.8706 65.3526C65.8855 65.3604 65.9021 65.3643 65.9205 65.3643Z" fill="#116631"/>
</g>
<defs>
<filter id="filter0_d_194_4036" x="0.200001" y="7.15256e-07" width="132.6" height="132.6" filterUnits="userSpaceOnUse" color-interpolation-filters="sRGB">
<feFlood flood-opacity="0" result="BackgroundImageFix"/>
<feColorMatrix in="SourceAlpha" type="matrix" values="0 0 0 0 0 0 0 0 0 0 0 0 0 0 0 0 0 0 127 0" result="hardAlpha"/>
<feOffset dy="1.8"/>
<feGaussianBlur stdDeviation="5.4"/>
<feComposite in2="hardAlpha" operator="out"/>
<feColorMatrix type="matrix" values="0 0 0 0 0 0 0 0 0 0 0 0 0 0 0 0 0 0 0.04 0"/>
<feBlend mode="normal" in2="BackgroundImageFix" result="effect1_dropShadow_194_4036"/>
<feBlend mode="normal" in="SourceGraphic" in2="effect1_dropShadow_194_4036" result="shape"/>
</filter>
</defs>
</svg>
